<mxfile host="app.diagrams.net" modified="2022-12-06T08:12:10.829Z" agent="5.0 (Windows NT 10.0; Win64; x64) AppleWebKit/537.36 (KHTML, like Gecko) Chrome/108.0.0.0 Safari/537.36" etag="KvYw0quePOcs0AEzb-7m" version="20.6.0" type="github">
  <diagram id="C5RBs43oDa-KdzZeNtuy" name="Page-1">
    <mxGraphModel dx="2188" dy="1172" grid="1" gridSize="10" guides="1" tooltips="1" connect="1" arrows="1" fold="1" page="1" pageScale="1" pageWidth="827" pageHeight="1169" math="0" shadow="0">
      <root>
        <mxCell id="WIyWlLk6GJQsqaUBKTNV-0" />
        <mxCell id="WIyWlLk6GJQsqaUBKTNV-1" parent="WIyWlLk6GJQsqaUBKTNV-0" />
        <mxCell id="Pv5caGlSZ3BdsRGH_1Py-0" value="Subject" style="swimlane;fontStyle=1;align=center;verticalAlign=top;childLayout=stackLayout;horizontal=1;startSize=26;horizontalStack=0;resizeParent=1;resizeLast=0;collapsible=1;marginBottom=0;rounded=0;shadow=0;strokeWidth=1;" parent="WIyWlLk6GJQsqaUBKTNV-1" vertex="1">
          <mxGeometry x="20" y="40" width="200" height="150" as="geometry">
            <mxRectangle x="130" y="380" width="160" height="26" as="alternateBounds" />
          </mxGeometry>
        </mxCell>
        <mxCell id="Pv5caGlSZ3BdsRGH_1Py-1" value="- state: number&#xa;- observers: Observes[]" style="text;align=left;verticalAlign=top;spacingLeft=4;spacingRight=4;overflow=hidden;rotatable=0;points=[[0,0.5],[1,0.5]];portConstraint=eastwest;" parent="Pv5caGlSZ3BdsRGH_1Py-0" vertex="1">
          <mxGeometry y="26" width="200" height="44" as="geometry" />
        </mxCell>
        <mxCell id="Pv5caGlSZ3BdsRGH_1Py-4" value="Relation" style="endArrow=open;html=1;endSize=12;startArrow=diamondThin;startSize=14;startFill=0;edgeStyle=orthogonalEdgeStyle;rounded=0;" parent="Pv5caGlSZ3BdsRGH_1Py-0" edge="1">
          <mxGeometry relative="1" as="geometry">
            <mxPoint x="132" y="55" as="sourcePoint" />
            <mxPoint x="292" y="55" as="targetPoint" />
          </mxGeometry>
        </mxCell>
        <mxCell id="Pv5caGlSZ3BdsRGH_1Py-5" value="0..n" style="edgeLabel;resizable=0;html=1;align=left;verticalAlign=top;" parent="Pv5caGlSZ3BdsRGH_1Py-4" connectable="0" vertex="1">
          <mxGeometry x="-1" relative="1" as="geometry" />
        </mxCell>
        <mxCell id="Pv5caGlSZ3BdsRGH_1Py-6" value="1" style="edgeLabel;resizable=0;html=1;align=right;verticalAlign=top;" parent="Pv5caGlSZ3BdsRGH_1Py-4" connectable="0" vertex="1">
          <mxGeometry x="1" relative="1" as="geometry" />
        </mxCell>
        <mxCell id="Pv5caGlSZ3BdsRGH_1Py-2" value="" style="line;html=1;strokeWidth=1;align=left;verticalAlign=middle;spacingTop=-1;spacingLeft=3;spacingRight=3;rotatable=0;labelPosition=right;points=[];portConstraint=eastwest;" parent="Pv5caGlSZ3BdsRGH_1Py-0" vertex="1">
          <mxGeometry y="70" width="200" height="8" as="geometry" />
        </mxCell>
        <mxCell id="Pv5caGlSZ3BdsRGH_1Py-3" value="+ getState()&#xa;+ setState(newState: number)&#xa;+ attrch(observer: Observer)&#xa;- notify()" style="text;align=left;verticalAlign=top;spacingLeft=4;spacingRight=4;overflow=hidden;rotatable=0;points=[[0,0.5],[1,0.5]];portConstraint=eastwest;" parent="Pv5caGlSZ3BdsRGH_1Py-0" vertex="1">
          <mxGeometry y="78" width="200" height="72" as="geometry" />
        </mxCell>
        <mxCell id="Pv5caGlSZ3BdsRGH_1Py-7" value="&lt;p style=&quot;margin:0px;margin-top:4px;text-align:center;&quot;&gt;&lt;b&gt;Observer&lt;/b&gt;&lt;/p&gt;&lt;hr size=&quot;1&quot;&gt;&lt;p style=&quot;margin:0px;margin-left:4px;&quot;&gt;+ nam: string&lt;/p&gt;&lt;hr size=&quot;1&quot;&gt;&lt;p style=&quot;margin:0px;margin-left:4px;&quot;&gt;+ update(state:number): void&lt;/p&gt;" style="verticalAlign=top;align=left;overflow=fill;fontSize=12;fontFamily=Helvetica;html=1;" parent="WIyWlLk6GJQsqaUBKTNV-1" vertex="1">
          <mxGeometry x="312" y="42" width="208" height="90" as="geometry" />
        </mxCell>
        <mxCell id="Pv5caGlSZ3BdsRGH_1Py-8" value="&lt;div style=&quot;color: rgb(166, 172, 205); background-color: rgb(41, 45, 62); font-family: Consolas, &amp;quot;Courier New&amp;quot;, monospace; font-weight: normal; font-size: 17px; line-height: 23px;&quot;&gt;&lt;div&gt;&lt;span style=&quot;color: #676e95;font-style: italic;&quot;&gt;// 主题&lt;/span&gt;&lt;/div&gt;&lt;div&gt;&lt;span style=&quot;color: #c792ea;&quot;&gt;class&lt;/span&gt;&lt;span style=&quot;color: #a6accd;&quot;&gt; &lt;/span&gt;&lt;span style=&quot;color: #ffcb6b;&quot;&gt;Subject&lt;/span&gt;&lt;span style=&quot;color: #a6accd;&quot;&gt; &lt;/span&gt;&lt;span style=&quot;color: #89ddff;&quot;&gt;{&lt;/span&gt;&lt;/div&gt;&lt;div&gt;&lt;span style=&quot;color: #a6accd;&quot;&gt;&amp;nbsp; &lt;/span&gt;&lt;span style=&quot;color: #c792ea;&quot;&gt;private&lt;/span&gt;&lt;span style=&quot;color: #a6accd;&quot;&gt; &lt;/span&gt;&lt;span style=&quot;color: #a6accd;&quot;&gt;state&lt;/span&gt;&lt;span style=&quot;color: #89ddff;&quot;&gt;:&lt;/span&gt;&lt;span style=&quot;color: #a6accd;&quot;&gt; &lt;/span&gt;&lt;span style=&quot;color: #ffcb6b;&quot;&gt;number&lt;/span&gt;&lt;span style=&quot;color: #a6accd;&quot;&gt; &lt;/span&gt;&lt;span style=&quot;color: #89ddff;&quot;&gt;=&lt;/span&gt;&lt;span style=&quot;color: #a6accd;&quot;&gt; &lt;/span&gt;&lt;span style=&quot;color: #f78c6c;&quot;&gt;0&lt;/span&gt;&lt;span style=&quot;color: #89ddff;&quot;&gt;;&lt;/span&gt;&lt;/div&gt;&lt;div&gt;&lt;span style=&quot;color: #a6accd;&quot;&gt;&amp;nbsp; &lt;/span&gt;&lt;span style=&quot;color: #c792ea;&quot;&gt;private&lt;/span&gt;&lt;span style=&quot;color: #a6accd;&quot;&gt; &lt;/span&gt;&lt;span style=&quot;color: #a6accd;&quot;&gt;observers&lt;/span&gt;&lt;span style=&quot;color: #89ddff;&quot;&gt;:&lt;/span&gt;&lt;span style=&quot;color: #a6accd;&quot;&gt; &lt;/span&gt;&lt;span style=&quot;color: #ffcb6b;&quot;&gt;Observer&lt;/span&gt;&lt;span style=&quot;color: #a6accd;&quot;&gt;[] &lt;/span&gt;&lt;span style=&quot;color: #89ddff;&quot;&gt;=&lt;/span&gt;&lt;span style=&quot;color: #a6accd;&quot;&gt; []&lt;/span&gt;&lt;span style=&quot;color: #89ddff;&quot;&gt;;&lt;/span&gt;&lt;/div&gt;&lt;br&gt;&lt;div&gt;&lt;span style=&quot;color: #a6accd;&quot;&gt;&amp;nbsp; &lt;/span&gt;&lt;span style=&quot;color: #82aaff;&quot;&gt;getState&lt;/span&gt;&lt;span style=&quot;color: #89ddff;&quot;&gt;():&lt;/span&gt;&lt;span style=&quot;color: #a6accd;&quot;&gt; &lt;/span&gt;&lt;span style=&quot;color: #ffcb6b;&quot;&gt;number&lt;/span&gt;&lt;span style=&quot;color: #a6accd;&quot;&gt; &lt;/span&gt;&lt;span style=&quot;color: #89ddff;&quot;&gt;{&lt;/span&gt;&lt;/div&gt;&lt;div&gt;&lt;span style=&quot;color: #f07178;&quot;&gt;&amp;nbsp; &amp;nbsp; &lt;/span&gt;&lt;span style=&quot;color: #89ddff;font-style: italic;&quot;&gt;return&lt;/span&gt;&lt;span style=&quot;color: #f07178;&quot;&gt; &lt;/span&gt;&lt;span style=&quot;color: #89ddff;&quot;&gt;this.&lt;/span&gt;&lt;span style=&quot;color: #a6accd;&quot;&gt;state&lt;/span&gt;&lt;span style=&quot;color: #89ddff;&quot;&gt;;&lt;/span&gt;&lt;/div&gt;&lt;div&gt;&lt;span style=&quot;color: #f07178;&quot;&gt;&amp;nbsp; &lt;/span&gt;&lt;span style=&quot;color: #89ddff;&quot;&gt;}&lt;/span&gt;&lt;/div&gt;&lt;div&gt;&lt;span style=&quot;color: #a6accd;&quot;&gt;&amp;nbsp; &lt;/span&gt;&lt;span style=&quot;color: #82aaff;&quot;&gt;setState&lt;/span&gt;&lt;span style=&quot;color: #89ddff;&quot;&gt;(&lt;/span&gt;&lt;span style=&quot;color: #a6accd;font-style: italic;&quot;&gt;newState&lt;/span&gt;&lt;span style=&quot;color: #89ddff;&quot;&gt;:&lt;/span&gt;&lt;span style=&quot;color: #a6accd;&quot;&gt; &lt;/span&gt;&lt;span style=&quot;color: #ffcb6b;&quot;&gt;number&lt;/span&gt;&lt;span style=&quot;color: #89ddff;&quot;&gt;)&lt;/span&gt;&lt;span style=&quot;color: #a6accd;&quot;&gt; &lt;/span&gt;&lt;span style=&quot;color: #89ddff;&quot;&gt;{&lt;/span&gt;&lt;/div&gt;&lt;div&gt;&lt;span style=&quot;color: #f07178;&quot;&gt;&amp;nbsp; &amp;nbsp; &lt;/span&gt;&lt;span style=&quot;color: #89ddff;&quot;&gt;this.&lt;/span&gt;&lt;span style=&quot;color: #a6accd;&quot;&gt;state&lt;/span&gt;&lt;span style=&quot;color: #f07178;&quot;&gt; &lt;/span&gt;&lt;span style=&quot;color: #89ddff;&quot;&gt;=&lt;/span&gt;&lt;span style=&quot;color: #f07178;&quot;&gt; &lt;/span&gt;&lt;span style=&quot;color: #a6accd;font-style: italic;&quot;&gt;newState&lt;/span&gt;&lt;span style=&quot;color: #89ddff;&quot;&gt;;&lt;/span&gt;&lt;/div&gt;&lt;div&gt;&lt;span style=&quot;color: #89ddff;&quot;&gt;&amp;nbsp; &amp;nbsp; &lt;/span&gt;&lt;span style=&quot;color: #676e95;font-style: italic;&quot;&gt;// 通知所有的观察者&lt;/span&gt;&lt;/div&gt;&lt;div&gt;&lt;span style=&quot;color: #f07178;&quot;&gt;&amp;nbsp; &amp;nbsp; &lt;/span&gt;&lt;span style=&quot;color: #89ddff;&quot;&gt;this.&lt;/span&gt;&lt;span style=&quot;color: #82aaff;&quot;&gt;notify&lt;/span&gt;&lt;span style=&quot;color: #f07178;&quot;&gt;()&lt;/span&gt;&lt;span style=&quot;color: #89ddff;&quot;&gt;;&lt;/span&gt;&lt;/div&gt;&lt;div&gt;&lt;span style=&quot;color: #f07178;&quot;&gt;&amp;nbsp; &lt;/span&gt;&lt;span style=&quot;color: #89ddff;&quot;&gt;}&lt;/span&gt;&lt;/div&gt;&lt;div&gt;&lt;span style=&quot;color: #89ddff;&quot;&gt;&amp;nbsp; &lt;/span&gt;&lt;span style=&quot;color: #676e95;font-style: italic;&quot;&gt;// 添加 观察者&lt;/span&gt;&lt;/div&gt;&lt;div&gt;&lt;span style=&quot;color: #a6accd;&quot;&gt;&amp;nbsp; &lt;/span&gt;&lt;span style=&quot;color: #82aaff;&quot;&gt;attach&lt;/span&gt;&lt;span style=&quot;color: #89ddff;&quot;&gt;(&lt;/span&gt;&lt;span style=&quot;color: #a6accd;font-style: italic;&quot;&gt;observer&lt;/span&gt;&lt;span style=&quot;color: #89ddff;&quot;&gt;:&lt;/span&gt;&lt;span style=&quot;color: #a6accd;&quot;&gt; &lt;/span&gt;&lt;span style=&quot;color: #ffcb6b;&quot;&gt;Observer&lt;/span&gt;&lt;span style=&quot;color: #89ddff;&quot;&gt;)&lt;/span&gt;&lt;span style=&quot;color: #a6accd;&quot;&gt; &lt;/span&gt;&lt;span style=&quot;color: #89ddff;&quot;&gt;{&lt;/span&gt;&lt;/div&gt;&lt;div&gt;&lt;span style=&quot;color: #f07178;&quot;&gt;&amp;nbsp; &amp;nbsp; &lt;/span&gt;&lt;span style=&quot;color: #89ddff;&quot;&gt;this.&lt;/span&gt;&lt;span style=&quot;color: #a6accd;&quot;&gt;observers&lt;/span&gt;&lt;span style=&quot;color: #89ddff;&quot;&gt;.&lt;/span&gt;&lt;span style=&quot;color: #82aaff;&quot;&gt;push&lt;/span&gt;&lt;span style=&quot;color: #f07178;&quot;&gt;(&lt;/span&gt;&lt;span style=&quot;color: #a6accd;font-style: italic;&quot;&gt;observer&lt;/span&gt;&lt;span style=&quot;color: #f07178;&quot;&gt;)&lt;/span&gt;&lt;span style=&quot;color: #89ddff;&quot;&gt;;&lt;/span&gt;&lt;/div&gt;&lt;div&gt;&lt;span style=&quot;color: #f07178;&quot;&gt;&amp;nbsp; &lt;/span&gt;&lt;span style=&quot;color: #89ddff;&quot;&gt;}&lt;/span&gt;&lt;/div&gt;&lt;div&gt;&lt;span style=&quot;color: #89ddff;&quot;&gt;&amp;nbsp; &lt;/span&gt;&lt;span style=&quot;color: #676e95;font-style: italic;&quot;&gt;// 通知 观察者&lt;/span&gt;&lt;/div&gt;&lt;div&gt;&lt;span style=&quot;color: #a6accd;&quot;&gt;&amp;nbsp; &lt;/span&gt;&lt;span style=&quot;color: #c792ea;&quot;&gt;private&lt;/span&gt;&lt;span style=&quot;color: #a6accd;&quot;&gt; &lt;/span&gt;&lt;span style=&quot;color: #82aaff;&quot;&gt;notify&lt;/span&gt;&lt;span style=&quot;color: #89ddff;&quot;&gt;()&lt;/span&gt;&lt;span style=&quot;color: #a6accd;&quot;&gt; &lt;/span&gt;&lt;span style=&quot;color: #89ddff;&quot;&gt;{&lt;/span&gt;&lt;/div&gt;&lt;div&gt;&lt;span style=&quot;color: #f07178;&quot;&gt;&amp;nbsp; &amp;nbsp; &lt;/span&gt;&lt;span style=&quot;color: #89ddff;&quot;&gt;this.&lt;/span&gt;&lt;span style=&quot;color: #a6accd;&quot;&gt;observers&lt;/span&gt;&lt;span style=&quot;color: #89ddff;&quot;&gt;.&lt;/span&gt;&lt;span style=&quot;color: #82aaff;&quot;&gt;forEach&lt;/span&gt;&lt;span style=&quot;color: #f07178;&quot;&gt;(&lt;/span&gt;&lt;span style=&quot;color: #89ddff;&quot;&gt;(&lt;/span&gt;&lt;span style=&quot;color: #a6accd;font-style: italic;&quot;&gt;obs&lt;/span&gt;&lt;span style=&quot;color: #89ddff;&quot;&gt;)&lt;/span&gt;&lt;span style=&quot;color: #f07178;&quot;&gt; &lt;/span&gt;&lt;span style=&quot;color: #c792ea;&quot;&gt;=&amp;gt;&lt;/span&gt;&lt;span style=&quot;color: #f07178;&quot;&gt; &lt;/span&gt;&lt;span style=&quot;color: #89ddff;&quot;&gt;{&lt;/span&gt;&lt;/div&gt;&lt;div&gt;&lt;span style=&quot;color: #f07178;&quot;&gt;&amp;nbsp; &amp;nbsp; &amp;nbsp; &lt;/span&gt;&lt;span style=&quot;color: #a6accd;font-style: italic;&quot;&gt;obs&lt;/span&gt;&lt;span style=&quot;color: #89ddff;&quot;&gt;.&lt;/span&gt;&lt;span style=&quot;color: #82aaff;&quot;&gt;updata&lt;/span&gt;&lt;span style=&quot;color: #f07178;&quot;&gt;(&lt;/span&gt;&lt;span style=&quot;color: #89ddff;&quot;&gt;this.&lt;/span&gt;&lt;span style=&quot;color: #a6accd;&quot;&gt;state&lt;/span&gt;&lt;span style=&quot;color: #f07178;&quot;&gt;)&lt;/span&gt;&lt;span style=&quot;color: #89ddff;&quot;&gt;;&lt;/span&gt;&lt;/div&gt;&lt;div&gt;&lt;span style=&quot;color: #f07178;&quot;&gt;&amp;nbsp; &amp;nbsp; &lt;/span&gt;&lt;span style=&quot;color: #89ddff;&quot;&gt;}&lt;/span&gt;&lt;span style=&quot;color: #f07178;&quot;&gt;)&lt;/span&gt;&lt;span style=&quot;color: #89ddff;&quot;&gt;;&lt;/span&gt;&lt;/div&gt;&lt;div&gt;&lt;span style=&quot;color: #f07178;&quot;&gt;&amp;nbsp; &lt;/span&gt;&lt;span style=&quot;color: #89ddff;&quot;&gt;}&lt;/span&gt;&lt;/div&gt;&lt;div&gt;&lt;span style=&quot;color: #89ddff;&quot;&gt;}&lt;/span&gt;&lt;/div&gt;&lt;br&gt;&lt;div&gt;&lt;span style=&quot;color: #676e95;font-style: italic;&quot;&gt;// 观察者&lt;/span&gt;&lt;/div&gt;&lt;div&gt;&lt;span style=&quot;color: #c792ea;&quot;&gt;class&lt;/span&gt;&lt;span style=&quot;color: #a6accd;&quot;&gt; &lt;/span&gt;&lt;span style=&quot;color: #ffcb6b;&quot;&gt;Observer&lt;/span&gt;&lt;span style=&quot;color: #a6accd;&quot;&gt; &lt;/span&gt;&lt;span style=&quot;color: #89ddff;&quot;&gt;{&lt;/span&gt;&lt;/div&gt;&lt;div&gt;&lt;span style=&quot;color: #a6accd;&quot;&gt;&amp;nbsp; &lt;/span&gt;&lt;span style=&quot;color: #a6accd;&quot;&gt;name&lt;/span&gt;&lt;span style=&quot;color: #89ddff;&quot;&gt;:&lt;/span&gt;&lt;span style=&quot;color: #a6accd;&quot;&gt; &lt;/span&gt;&lt;span style=&quot;color: #ffcb6b;&quot;&gt;string&lt;/span&gt;&lt;span style=&quot;color: #89ddff;&quot;&gt;;&lt;/span&gt;&lt;/div&gt;&lt;div&gt;&lt;span style=&quot;color: #a6accd;&quot;&gt;&amp;nbsp; &lt;/span&gt;&lt;span style=&quot;color: #c792ea;&quot;&gt;constructor&lt;/span&gt;&lt;span style=&quot;color: #89ddff;&quot;&gt;(&lt;/span&gt;&lt;span style=&quot;color: #a6accd;font-style: italic;&quot;&gt;name&lt;/span&gt;&lt;span style=&quot;color: #89ddff;&quot;&gt;:&lt;/span&gt;&lt;span style=&quot;color: #a6accd;&quot;&gt; &lt;/span&gt;&lt;span style=&quot;color: #ffcb6b;&quot;&gt;string&lt;/span&gt;&lt;span style=&quot;color: #89ddff;&quot;&gt;)&lt;/span&gt;&lt;span style=&quot;color: #a6accd;&quot;&gt; &lt;/span&gt;&lt;span style=&quot;color: #89ddff;&quot;&gt;{&lt;/span&gt;&lt;/div&gt;&lt;div&gt;&lt;span style=&quot;color: #f07178;&quot;&gt;&amp;nbsp; &amp;nbsp; &lt;/span&gt;&lt;span style=&quot;color: #89ddff;&quot;&gt;this.&lt;/span&gt;&lt;span style=&quot;color: #a6accd;&quot;&gt;name&lt;/span&gt;&lt;span style=&quot;color: #f07178;&quot;&gt; &lt;/span&gt;&lt;span style=&quot;color: #89ddff;&quot;&gt;=&lt;/span&gt;&lt;span style=&quot;color: #f07178;&quot;&gt; &lt;/span&gt;&lt;span style=&quot;color: #a6accd;font-style: italic;&quot;&gt;name&lt;/span&gt;&lt;span style=&quot;color: #89ddff;&quot;&gt;;&lt;/span&gt;&lt;/div&gt;&lt;div&gt;&lt;span style=&quot;color: #f07178;&quot;&gt;&amp;nbsp; &lt;/span&gt;&lt;span style=&quot;color: #89ddff;&quot;&gt;}&lt;/span&gt;&lt;/div&gt;&lt;div&gt;&lt;span style=&quot;color: #a6accd;&quot;&gt;&amp;nbsp; &lt;/span&gt;&lt;span style=&quot;color: #82aaff;&quot;&gt;updata&lt;/span&gt;&lt;span style=&quot;color: #89ddff;&quot;&gt;(&lt;/span&gt;&lt;span style=&quot;color: #a6accd;font-style: italic;&quot;&gt;state&lt;/span&gt;&lt;span style=&quot;color: #89ddff;&quot;&gt;:&lt;/span&gt;&lt;span style=&quot;color: #a6accd;&quot;&gt; &lt;/span&gt;&lt;span style=&quot;color: #ffcb6b;&quot;&gt;number&lt;/span&gt;&lt;span style=&quot;color: #89ddff;&quot;&gt;)&lt;/span&gt;&lt;span style=&quot;color: #a6accd;&quot;&gt; &lt;/span&gt;&lt;span style=&quot;color: #89ddff;&quot;&gt;{&lt;/span&gt;&lt;/div&gt;&lt;div&gt;&lt;span style=&quot;color: #f07178;&quot;&gt;&amp;nbsp; &amp;nbsp; &lt;/span&gt;&lt;span style=&quot;color: #a6accd;&quot;&gt;console&lt;/span&gt;&lt;span style=&quot;color: #89ddff;&quot;&gt;.&lt;/span&gt;&lt;span style=&quot;color: #82aaff;&quot;&gt;log&lt;/span&gt;&lt;span style=&quot;color: #f07178;&quot;&gt;(&lt;/span&gt;&lt;span style=&quot;color: #89ddff;&quot;&gt;`${&lt;/span&gt;&lt;span style=&quot;color: #89ddff;&quot;&gt;this.&lt;/span&gt;&lt;span style=&quot;color: #a6accd;&quot;&gt;name&lt;/span&gt;&lt;span style=&quot;color: #89ddff;&quot;&gt;}&lt;/span&gt;&lt;span style=&quot;color: #c3e88d;&quot;&gt; updated, state is &lt;/span&gt;&lt;span style=&quot;color: #89ddff;&quot;&gt;${&lt;/span&gt;&lt;span style=&quot;color: #a6accd;font-style: italic;&quot;&gt;state&lt;/span&gt;&lt;span style=&quot;color: #89ddff;&quot;&gt;}`&lt;/span&gt;&lt;span style=&quot;color: #f07178;&quot;&gt;)&lt;/span&gt;&lt;span style=&quot;color: #89ddff;&quot;&gt;;&lt;/span&gt;&lt;/div&gt;&lt;div&gt;&lt;span style=&quot;color: #f07178;&quot;&gt;&amp;nbsp; &lt;/span&gt;&lt;span style=&quot;color: #89ddff;&quot;&gt;}&lt;/span&gt;&lt;/div&gt;&lt;div&gt;&lt;span style=&quot;color: #89ddff;&quot;&gt;}&lt;/span&gt;&lt;/div&gt;&lt;br&gt;&lt;div&gt;&lt;span style=&quot;color: #676e95;font-style: italic;&quot;&gt;// test&lt;/span&gt;&lt;/div&gt;&lt;div&gt;&lt;span style=&quot;color: #c792ea;&quot;&gt;const&lt;/span&gt;&lt;span style=&quot;color: #a6accd;&quot;&gt; &lt;/span&gt;&lt;span style=&quot;color: #a6accd;&quot;&gt;sub&lt;/span&gt;&lt;span style=&quot;color: #a6accd;&quot;&gt; &lt;/span&gt;&lt;span style=&quot;color: #89ddff;&quot;&gt;=&lt;/span&gt;&lt;span style=&quot;color: #a6accd;&quot;&gt; &lt;/span&gt;&lt;span style=&quot;color: #89ddff;&quot;&gt;new&lt;/span&gt;&lt;span style=&quot;color: #a6accd;&quot;&gt; &lt;/span&gt;&lt;span style=&quot;color: #ffcb6b;&quot;&gt;Subject&lt;/span&gt;&lt;span style=&quot;color: #a6accd;&quot;&gt;()&lt;/span&gt;&lt;span style=&quot;color: #89ddff;&quot;&gt;;&lt;/span&gt;&lt;/div&gt;&lt;div&gt;&lt;span style=&quot;color: #c792ea;&quot;&gt;const&lt;/span&gt;&lt;span style=&quot;color: #a6accd;&quot;&gt; &lt;/span&gt;&lt;span style=&quot;color: #a6accd;&quot;&gt;observer1&lt;/span&gt;&lt;span style=&quot;color: #a6accd;&quot;&gt; &lt;/span&gt;&lt;span style=&quot;color: #89ddff;&quot;&gt;=&lt;/span&gt;&lt;span style=&quot;color: #a6accd;&quot;&gt; &lt;/span&gt;&lt;span style=&quot;color: #89ddff;&quot;&gt;new&lt;/span&gt;&lt;span style=&quot;color: #a6accd;&quot;&gt; &lt;/span&gt;&lt;span style=&quot;color: #ffcb6b;&quot;&gt;Observer&lt;/span&gt;&lt;span style=&quot;color: #a6accd;&quot;&gt;(&lt;/span&gt;&lt;span style=&quot;color: #89ddff;&quot;&gt;&quot;&lt;/span&gt;&lt;span style=&quot;color: #c3e88d;&quot;&gt;A&lt;/span&gt;&lt;span style=&quot;color: #89ddff;&quot;&gt;&quot;&lt;/span&gt;&lt;span style=&quot;color: #a6accd;&quot;&gt;)&lt;/span&gt;&lt;span style=&quot;color: #89ddff;&quot;&gt;;&lt;/span&gt;&lt;/div&gt;&lt;div&gt;&lt;span style=&quot;color: #c792ea;&quot;&gt;const&lt;/span&gt;&lt;span style=&quot;color: #a6accd;&quot;&gt; &lt;/span&gt;&lt;span style=&quot;color: #a6accd;&quot;&gt;observer2&lt;/span&gt;&lt;span style=&quot;color: #a6accd;&quot;&gt; &lt;/span&gt;&lt;span style=&quot;color: #89ddff;&quot;&gt;=&lt;/span&gt;&lt;span style=&quot;color: #a6accd;&quot;&gt; &lt;/span&gt;&lt;span style=&quot;color: #89ddff;&quot;&gt;new&lt;/span&gt;&lt;span style=&quot;color: #a6accd;&quot;&gt; &lt;/span&gt;&lt;span style=&quot;color: #ffcb6b;&quot;&gt;Observer&lt;/span&gt;&lt;span style=&quot;color: #a6accd;&quot;&gt;(&lt;/span&gt;&lt;span style=&quot;color: #89ddff;&quot;&gt;&quot;&lt;/span&gt;&lt;span style=&quot;color: #c3e88d;&quot;&gt;B&lt;/span&gt;&lt;span style=&quot;color: #89ddff;&quot;&gt;&quot;&lt;/span&gt;&lt;span style=&quot;color: #a6accd;&quot;&gt;)&lt;/span&gt;&lt;span style=&quot;color: #89ddff;&quot;&gt;;&lt;/span&gt;&lt;/div&gt;&lt;br&gt;&lt;div&gt;&lt;span style=&quot;color: #a6accd;&quot;&gt;sub&lt;/span&gt;&lt;span style=&quot;color: #89ddff;&quot;&gt;.&lt;/span&gt;&lt;span style=&quot;color: #82aaff;&quot;&gt;attach&lt;/span&gt;&lt;span style=&quot;color: #a6accd;&quot;&gt;(&lt;/span&gt;&lt;span style=&quot;color: #a6accd;&quot;&gt;observer1&lt;/span&gt;&lt;span style=&quot;color: #a6accd;&quot;&gt;)&lt;/span&gt;&lt;span style=&quot;color: #89ddff;&quot;&gt;;&lt;/span&gt;&lt;/div&gt;&lt;div&gt;&lt;span style=&quot;color: #a6accd;&quot;&gt;sub&lt;/span&gt;&lt;span style=&quot;color: #89ddff;&quot;&gt;.&lt;/span&gt;&lt;span style=&quot;color: #82aaff;&quot;&gt;attach&lt;/span&gt;&lt;span style=&quot;color: #a6accd;&quot;&gt;(&lt;/span&gt;&lt;span style=&quot;color: #a6accd;&quot;&gt;observer2&lt;/span&gt;&lt;span style=&quot;color: #a6accd;&quot;&gt;)&lt;/span&gt;&lt;span style=&quot;color: #89ddff;&quot;&gt;;&lt;/span&gt;&lt;/div&gt;&lt;br&gt;&lt;div&gt;&lt;span style=&quot;color: #a6accd;&quot;&gt;sub&lt;/span&gt;&lt;span style=&quot;color: #89ddff;&quot;&gt;.&lt;/span&gt;&lt;span style=&quot;color: #82aaff;&quot;&gt;setState&lt;/span&gt;&lt;span style=&quot;color: #a6accd;&quot;&gt;(&lt;/span&gt;&lt;span style=&quot;color: #f78c6c;&quot;&gt;1&lt;/span&gt;&lt;span style=&quot;color: #a6accd;&quot;&gt;)&lt;/span&gt;&lt;span style=&quot;color: #89ddff;&quot;&gt;;&lt;/span&gt;&lt;/div&gt;&lt;br&gt;&lt;/div&gt;" style="text;whiteSpace=wrap;html=1;" parent="WIyWlLk6GJQsqaUBKTNV-1" vertex="1">
          <mxGeometry x="590" y="20" width="560" height="1100" as="geometry" />
        </mxCell>
      </root>
    </mxGraphModel>
  </diagram>
</mxfile>
